<?xml version="1.0" standalone="no"?>
<!DOCTYPE svg PUBLIC "-//W3C//DTD SVG 20010904//EN"
 "http://www.w3.org/TR/2001/REC-SVG-20010904/DTD/svg10.dtd">
<svg version="1.0" xmlns="http://www.w3.org/2000/svg"
 width="211.000000pt" height="112.000000pt" viewBox="0 0 211.000000 112.000000"
 preserveAspectRatio="xMidYMid meet">
<g transform="translate(0.000000,112.000000) scale(0.100000,-0.100000)"
fill="#000000" stroke="none">
<path d="M1170 1115 c0 -1 35 -58 78 -127 42 -68 185 -300 317 -516 219 -358
242 -392 267 -392 l27 0 -52 83 c-29 46 -171 277 -317 514 -234 381 -268 432
-292 435 -16 3 -28 4 -28 3z"/>
<path d="M1280 1113 c0 -3 85 -143 188 -311 104 -169 246 -400 316 -514 111
-182 131 -208 153 -208 13 0 23 4 21 8 -3 8 -535 874 -594 968 -22 35 -40 53
-58 56 -14 3 -26 3 -26 1z"/>
<path d="M50 595 c0 -508 0 -515 20 -515 20 0 20 7 20 495 l0 495 309 0 c257
0 317 -3 359 -16 151 -49 253 -215 223 -363 -24 -117 -88 -202 -190 -249 -53
-25 -64 -26 -228 -27 -173 0 -173 0 -173 -22 0 -22 4 -23 83 -23 l83 0 44
-145 c40 -132 46 -145 67 -145 13 0 23 4 23 8 0 4 -20 68 -45 142 -25 74 -45
135 -45 137 0 2 10 3 23 3 20 0 27 -15 67 -145 43 -137 46 -145 71 -145 l25 0
-48 141 c-26 78 -45 145 -42 150 3 5 11 9 19 9 12 0 27 -39 95 -245 14 -41 22
-51 43 -53 l25 -3 -53 155 c-45 129 -52 155 -39 160 23 9 34 7 34 -5 0 -6 23
-78 51 -160 47 -136 54 -149 75 -149 13 0 24 1 24 3 0 5 -110 319 -115 327 -2
4 13 20 35 35 89 61 145 191 138 319 -7 130 -80 241 -200 307 l-63 34 -357 3
-358 3 0 -516z"/>
<path d="M1060 596 l0 -516 25 0 25 0 -2 480 c-2 264 -1 480 2 480 3 -1 61
-94 130 -208 203 -335 449 -735 459 -745 5 -5 18 -7 29 -5 19 3 15 12 -38 98
-32 52 -173 282 -313 510 -242 395 -256 415 -286 418 l-31 3 0 -515z"/>
<path d="M1392 1101 c2 -4 143 -236 313 -514 288 -470 312 -507 338 -507 l27
0 0 515 0 515 -26 0 -25 0 3 -480 c2 -264 2 -480 1 -480 0 0 -13 21 -28 48
-15 26 -87 144 -160 262 -73 118 -192 313 -265 433 -115 187 -136 217 -157
217 -14 0 -23 -4 -21 -9z"/>
<path d="M1750 886 c0 -220 0 -225 25 -267 l25 -44 0 268 0 267 -25 0 -25 0 0
-224z"/>
<path d="M1840 811 c0 -287 1 -301 21 -335 12 -20 23 -36 25 -36 2 0 4 151 4
335 l0 335 -25 0 -25 0 0 -299z"/>
<path d="M1930 740 c0 -352 1 -373 20 -410 11 -22 23 -40 25 -40 3 0 5 184 5
410 l0 410 -25 0 -25 0 0 -370z"/>
<path d="M140 553 c0 -466 0 -473 20 -473 20 0 20 7 20 450 l0 450 263 0 c242
0 265 -2 307 -21 93 -42 144 -117 144 -214 1 -117 -75 -211 -189 -235 -32 -7
-112 -10 -185 -8 l-130 3 0 -23 0 -24 173 4 c160 3 175 5 221 28 97 50 156
148 156 259 0 69 -25 125 -79 184 -75 82 -95 86 -429 89 l-292 3 0 -472z"/>
<path d="M230 511 c0 -424 0 -431 20 -431 20 0 20 7 20 405 l0 405 214 0 c204
0 214 -1 246 -22 74 -51 96 -118 61 -190 -36 -74 -61 -83 -243 -83 l-158 0 0
-23 0 -23 168 3 c159 3 171 4 204 27 56 39 82 85 86 155 3 53 0 66 -24 102
-15 23 -45 53 -67 68 l-41 26 -227 0 c-125 0 -234 3 -243 6 -14 6 -16 -36 -16
-425z"/>
<path d="M1150 495 l0 -415 25 0 25 0 0 375 c0 357 -1 378 -20 415 -11 22 -23
40 -25 40 -3 0 -5 -187 -5 -415z"/>
<path d="M320 463 c0 -376 0 -383 20 -383 20 0 20 7 20 360 l0 360 163 0 c146
0 166 -2 180 -18 21 -23 22 -52 3 -78 -13 -17 -27 -19 -165 -19 -150 0 -151 0
-151 -22 0 -23 1 -23 150 -23 88 0 159 5 173 11 51 23 63 109 23 156 l-24 28
-196 5 -196 5 0 -382z"/>
<path d="M1240 420 l0 -340 25 0 25 0 0 300 c0 282 -1 303 -20 340 -11 22 -23
40 -25 40 -3 0 -5 -153 -5 -340z"/>
<path d="M1330 345 l0 -265 25 0 25 0 0 231 c0 217 -1 234 -21 265 -11 19 -23
34 -25 34 -2 0 -4 -119 -4 -265z"/>
</g>
</svg>
